<svg width="32" height="32" viewBox="0 0 32 32" fill="none" xmlns="http://www.w3.org/2000/svg">
<path fill-rule="evenodd" clip-rule="evenodd" d="M13.2562 21.1835V21.1835C13.2562 18.9941 11.4813 17.2192 9.29187 17.2192V17.2192C7.10296 17.2199 5.32889 18.9946 5.32889 21.1835V21.1835C5.32889 23.3722 7.10318 25.1465 9.29187 25.1465V25.1465C10.3432 25.1468 11.3515 24.7295 12.095 23.9862C12.8385 23.243 13.2562 22.2348 13.2562 21.1835Z" stroke="white" stroke-width="2" stroke-linecap="round" stroke-linejoin="round"/>
<path d="M26.6711 22.4027C26.6711 24.7601 24.7601 26.6711 22.4027 26.6711V26.6711C20.0453 26.6711 18.1342 24.7601 18.1342 22.4027V22.4027C18.1334 20.8051 18.5673 19.2373 19.3894 17.8675L20.5379 15.9533C21.36 14.5835 21.7939 13.0157 21.7931 11.4181V11.4181C21.7879 8.05364 19.059 5.32892 15.6945 5.32892V5.32892C12.3274 5.32965 9.59807 8.05904 9.59733 11.4261V11.4261C9.60302 12.8643 10.0403 14.2676 10.8525 15.4545L11.9983 17.1565C12.8106 18.3428 13.2479 19.7458 13.2535 21.1835V21.1835" stroke="white" stroke-width="2" stroke-linecap="round" stroke-linejoin="round"/>
</svg>
