<svg width="30" height="30" viewBox="0 0 30 30" fill="none" xmlns="http://www.w3.org/2000/svg">
<path fill-rule="evenodd" clip-rule="evenodd" d="M17.4006 13.8009C17.4006 12.4749 16.3256 11.3999 14.9996 11.3999C13.6736 11.3999 12.5986 12.4749 12.5986 13.8009C12.5986 15.1269 13.6736 16.2019 14.9996 16.2019C15.6364 16.2019 16.2471 15.949 16.6974 15.4987C17.1477 15.0484 17.4006 14.4377 17.4006 13.8009V13.8009Z" stroke="white" stroke-width="1.5" stroke-linecap="round" stroke-linejoin="round"/>
<path fill-rule="evenodd" clip-rule="evenodd" d="M17.4006 13.8009C17.4006 12.4749 16.3256 11.3999 14.9996 11.3999C13.6736 11.3999 12.5986 12.4749 12.5986 13.8009C12.5986 15.1269 13.6736 16.2019 14.9996 16.2019C15.6364 16.2019 16.2471 15.949 16.6974 15.4987C17.1477 15.0484 17.4006 14.4377 17.4006 13.8009Z" stroke="white" stroke-width="1.5" stroke-linecap="round" stroke-linejoin="round"/>
<path d="M21.0021 22.7838C24.9592 20.1399 26.7204 15.218 25.3389 10.6638C23.9574 6.1096 19.7587 2.99561 14.9996 2.99561C10.2405 2.99561 6.04179 6.1096 4.66032 10.6638C3.27886 15.218 5.03999 20.1399 8.99711 22.7838" stroke="white" stroke-width="1.5" stroke-linecap="round" stroke-linejoin="round"/>
<path d="M10.1976 18.3235C7.72885 15.7075 7.80817 11.5968 10.376 9.07804C12.9439 6.55927 17.0554 6.55927 19.6232 9.07804C22.191 11.5968 22.2704 15.7075 19.8016 18.3235" stroke="white" stroke-width="1.5" stroke-linecap="round" stroke-linejoin="round"/>
<path fill-rule="evenodd" clip-rule="evenodd" d="M15.4196 19.8035C15.9736 19.8035 16.5022 20.0354 16.8773 20.443C17.2523 20.8507 17.4396 21.3967 17.3936 21.9488L17.1359 25.0407C17.0434 26.1518 16.1145 27.0065 14.9996 27.0065V27.0065C13.8846 27.0065 12.9558 26.1518 12.8632 25.0407L12.6056 21.9488C12.5596 21.3967 12.7468 20.8507 13.1219 20.4431C13.497 20.0354 14.0256 19.8035 14.5795 19.8035H15.4196Z" stroke="white" stroke-width="1.5" stroke-linecap="round" stroke-linejoin="round"/>
</svg>
