<svg width="40" height="40" viewBox="0 0 40 40" fill="none" xmlns="http://www.w3.org/2000/svg">
<path fill-rule="evenodd" clip-rule="evenodd" d="M29.4281 8.91832V8.91832C34.6351 14.1499 34.6351 22.6059 29.4281 27.8375V27.8375L23.9083 33.3757C21.76 35.5342 18.2685 35.5424 16.11 33.3941L16.0917 33.3757L10.5719 27.8376C5.36497 22.6059 5.36493 14.15 10.5718 8.91832V8.91832C15.7543 3.71133 24.1766 3.69144 29.3836 8.87391L29.428 8.91832H29.4281Z" stroke="white" stroke-width="2" stroke-linecap="round" stroke-linejoin="round"/>
<path fill-rule="evenodd" clip-rule="evenodd" d="M25 17.7146V21.6667C25 22.5871 24.2538 23.3333 23.3333 23.3333H16.6667C15.7462 23.3333 15 22.5871 15 21.6667V17.6186C15 17.1122 15.2302 16.6334 15.6255 16.3171L18.8989 13.6985C19.5076 13.2116 20.3724 13.2116 20.9811 13.6985L24.3745 16.4131C24.7698 16.7294 25 17.2083 25 17.7146Z" stroke="white" stroke-width="2" stroke-linecap="round" stroke-linejoin="round"/>
</svg>
