<svg width="26" height="26" viewBox="0 0 26 26" fill="none" xmlns="http://www.w3.org/2000/svg">
<path d="M16.8926 12.9902C16.6132 13.3542 16.1838 13.5716 15.7251 13.5815C15.2674 13.5689 14.8393 13.352 14.5586 12.9902" stroke="#797F99" stroke-width="1.5" stroke-linecap="round" stroke-linejoin="round"/>
<path d="M11.4433 12.9902C11.1642 13.3539 10.7352 13.5713 10.2769 13.5815C9.81882 13.5691 9.39042 13.3521 9.10938 12.9902" stroke="#797F99" stroke-width="1.5" stroke-linecap="round" stroke-linejoin="round"/>
<path d="M15.2232 17.146C13.9495 18.2572 12.051 18.2572 10.7773 17.146" stroke="#797F99" stroke-width="1.5" stroke-linecap="round" stroke-linejoin="round"/>
<path d="M14.8281 5.74491L16.4518 4.23228C16.9035 3.81076 17.5182 3.61011 18.1316 3.68399C18.745 3.75786 19.2944 4.09873 19.6331 4.61543L19.7872 4.84853C20.168 5.42712 20.3708 6.10468 20.3704 6.79734V6.79734C20.3707 7.48968 20.1679 8.1669 19.7872 8.74515L19.6321 8.97825C19.294 9.49536 18.7448 9.83666 18.1314 9.91075C17.518 9.98484 16.9033 9.78414 16.4518 9.36241L14.8281 7.84878" stroke="#797F99" stroke-width="1.5" stroke-linecap="round" stroke-linejoin="round"/>
<path d="M11.1712 7.84785L9.54754 9.36048C9.09586 9.782 8.48115 9.98264 7.86777 9.90877C7.25439 9.83489 6.70489 9.49403 6.36621 8.97732L6.21215 8.74423C5.83161 8.16626 5.62883 7.48941 5.62891 6.79741V6.79741C5.62875 6.10509 5.83153 5.42791 6.21215 4.8496L6.36721 4.61651C6.70553 4.0997 7.25477 3.75863 7.86801 3.68456C8.48124 3.61048 9.0959 3.81096 9.54754 4.23235L11.1712 5.74498" stroke="#797F99" stroke-width="1.5" stroke-linecap="round" stroke-linejoin="round"/>
<ellipse cx="13.0004" cy="6.79632" rx="2.10588" ry="2.12689" stroke="#797F99" stroke-width="1.5" stroke-linecap="round" stroke-linejoin="round"/>
<path d="M13 22.4742C16.7557 22.4722 20.0459 19.9579 21.0343 16.3346C22.1541 16.2103 23.0013 15.2638 23.0013 14.1372C23.0013 13.0106 22.1541 12.0641 21.0343 11.9398C20.7456 10.8868 20.2524 9.90096 19.5827 9.03857" stroke="#797F99" stroke-width="1.5" stroke-linecap="round" stroke-linejoin="round"/>
<path d="M13.0013 22.4742C9.24555 22.4722 5.95534 19.9579 4.96692 16.3346C3.84717 16.2103 3 15.2638 3 14.1372C3 13.0106 3.84717 12.0641 4.96692 11.9398C5.25562 10.8868 5.74888 9.90096 6.41852 9.03857" stroke="#797F99" stroke-width="1.5" stroke-linecap="round" stroke-linejoin="round"/>
</svg>
