<svg width="26" height="26" viewBox="0 0 26 26" fill="none" xmlns="http://www.w3.org/2000/svg">
<path d="M16.8926 12.9941C16.6132 13.3581 16.1838 13.5756 15.7251 13.5854C15.2674 13.5728 14.8393 13.3559 14.5586 12.9941" stroke="#797F99" stroke-width="1.5" stroke-linecap="round" stroke-linejoin="round"/>
<path d="M11.4433 12.9941C11.1642 13.3578 10.7352 13.5753 10.2769 13.5854C9.81882 13.573 9.39042 13.356 9.10938 12.9941" stroke="#797F99" stroke-width="1.5" stroke-linecap="round" stroke-linejoin="round"/>
<path fill-rule="evenodd" clip-rule="evenodd" d="M13.0013 22.4779C16.757 22.4759 20.0472 19.9617 21.0356 16.3383C22.1554 16.214 23.0025 15.2676 23.0025 14.1409C23.0025 13.0143 22.1554 12.0679 21.0356 11.9435C20.0493 8.31869 16.7579 5.80322 13.0013 5.80322C9.24464 5.80322 5.95325 8.31869 4.96692 11.9435C3.84717 12.0679 3 13.0143 3 14.1409C3 15.2676 3.84717 16.214 4.96692 16.3383C5.95534 19.9617 9.24555 22.4759 13.0013 22.4779Z" stroke="#797F99" stroke-width="1.5" stroke-linecap="round" stroke-linejoin="round"/>
<path d="M15.2232 17.149C13.9495 18.2601 12.051 18.2601 10.7773 17.149" stroke="#797F99" stroke-width="1.5" stroke-linecap="round" stroke-linejoin="round"/>
<path d="M10.7188 3.52197C11.324 3.52197 11.9044 3.76239 12.3323 4.19034C12.7603 4.61829 13.0007 5.19871 13.0007 5.80392" stroke="#797F99" stroke-width="1.5" stroke-linecap="round" stroke-linejoin="round"/>
<path d="M13 5.80392C13 5.19871 13.2404 4.61829 13.6684 4.19034C14.0963 3.76239 14.6767 3.52197 15.282 3.52197" stroke="#797F99" stroke-width="1.5" stroke-linecap="round" stroke-linejoin="round"/>
</svg>
